HIERARCHY
ROOT Hips
{
	OFFSET -0.179506 -22.333345 2.821913
	CHANNELS 6 Xposition Yposition Zposition Zrotation Yrotation Xrotation 
	JOINT LeftUpLeg
	{
		OFFSET 6.951974 -9.140623 -0.681533
		CHANNELS 3 Zrotation Yrotation Xrotation
		JOINT LeftLeg
		{
			OFFSET 3.427654 -37.519855 -0.449580
			CHANNELS 3 Zrotation Yrotation Xrotation
			JOINT LeftFoot
			{
				OFFSET -1.359570 -39.796059 -4.369333
				CHANNELS 3 Zrotation Yrotation Xrotation
				JOINT LeftToe
				{
					OFFSET 2.635814 -5.579078 11.928840
					CHANNELS 3 Zrotation Yrotation Xrotation
					End Site
					{
						OFFSET 0.000000 0.000000 0.000000
					}
				}
			}
		}
	}
	JOINT RightUpLeg
	{
		OFFSET -6.767048 -9.052170 -0.431982
		CHANNELS 3 Zrotation Yrotation Xrotation
		JOINT RightLeg
		{
			OFFSET -3.829005 -38.256897 -0.885003
			CHANNELS 3 Zrotation Yrotation Xrotation
			JOINT RightFoot
			{
				OFFSET 1.577377 -39.841461 -4.231180
				CHANNELS 3 Zrotation Yrotation Xrotation
				JOINT RightToe
				{
					OFFSET -2.537174 -4.814398 12.334795
					CHANNELS 3 Zrotation Yrotation Xrotation
					End Site
					{
						OFFSET 0.000000 0.000000 0.000000
					}
				}
			}
		}
	}
	JOINT Spine
	{
		OFFSET -0.253288 10.896323 -2.669631
		CHANNELS 3 Zrotation Yrotation Xrotation
		JOINT Spine1
		{
			OFFSET 0.548704 13.518043 0.109247
			CHANNELS 3 Zrotation Yrotation Xrotation
			JOINT Spine2
			{
				OFFSET 0.145701 5.292222 2.542457
				CHANNELS 3 Zrotation Yrotation Xrotation
				JOINT Neck
				{
					OFFSET -0.277840 21.387037 -4.285703
					CHANNELS 3 Zrotation Yrotation Xrotation
					JOINT Head
					{
						OFFSET 0.515184 6.496960 5.134897
						CHANNELS 3 Zrotation Yrotation Xrotation
						End Site
						{
							OFFSET 0.000000 0.000000 0.000000
						}
					}
				}
				JOINT LeftShoulder
				{
					OFFSET 7.884473 12.174932 -3.408961
					CHANNELS 3 Zrotation Yrotation Xrotation
					JOINT LeftArm
					{
						OFFSET 9.097692 3.046888 -0.886815
						CHANNELS 3 Zrotation Yrotation Xrotation
						JOINT LeftForeArm
						{
							OFFSET 25.961220 -1.277207 -2.745643
							CHANNELS 3 Zrotation Yrotation Xrotation
							JOINT LeftHand
							{
								OFFSET 24.923361 0.898606 -0.117091
								CHANNELS 3 Zrotation Yrotation Xrotation
								End Site
								{
									OFFSET 0.000000 0.000000 0.000000
								}
							}
						}
					}
				}
				JOINT RightShoulder
				{
					OFFSET -8.175920 11.883285 -3.861528
					CHANNELS 3 Zrotation Yrotation Xrotation
					JOINT RightArm
					{
						OFFSET -9.601238 3.255117 -0.914307
						CHANNELS 3 Zrotation Yrotation Xrotation
						JOINT RightForeArm
						{
							OFFSET -25.374195 -1.332924 -2.140099
							CHANNELS 3 Zrotation Yrotation Xrotation
							JOINT RightHand
							{
								OFFSET -25.529810 0.777228 -0.555919
								CHANNELS 3 Zrotation Yrotation Xrotation
								End Site
								{
									OFFSET 0.000000 0.000000 0.000000
								}
							}
						}
					}
				}
			}
		}
	}
}
MOTION
Frames: 9
Frame Time: 0.033333
-21.989443 2.226268 90.912346 -121.007001 2.767624 87.539138 15.018887 6.981935 1.347098 -4.147787 -1.750639 14.174328 0.864279 10.897771 -25.082597 nan nan nan -13.321272 -9.681658 -12.699653 2.718677 -8.174721 15.362084 5.581845 -5.799378 -5.883500 nan nan nan -6.869494 -0.379461 0.668942 7.301063 -7.671713 11.336748 0.989192 -1.298027 -7.556777 3.638174 -21.179436 14.337846 5.557798 -15.267557 20.006946 -19.307423 -13.061254 6.324737 -62.018422 -43.129768 31.404468 156.470551 -69.375989 -124.755307 6.210829 -17.815358 -9.234697 17.924385 5.716639 -2.384304 35.736021 19.826239 -5.442955 -85.918290 46.144439 -66.108245 -10.390352 5.723913 -7.727546 
-22.005770 2.200649 90.887016 -120.997824 2.767343 87.624796 14.978989 7.049089 1.167699 -4.146176 -1.368433 14.231491 0.810670 10.914719 -25.002194 nan nan nan -13.363862 -9.693941 -12.757267 2.852460 -8.138863 15.068286 5.700707 -5.658598 -5.931928 nan nan nan -6.771432 -0.443926 0.429473 7.205888 -7.686294 11.362452 0.915808 -1.312752 -7.319653 3.790760 -21.112919 14.066315 5.433240 -15.288577 20.156478 -19.055361 -12.994559 6.100575 -62.154694 -43.106357 31.444174 156.460630 -69.422949 -124.686037 6.424605 -18.018257 -9.414723 17.754897 5.649968 -2.407698 35.892792 19.977433 -5.361454 -85.718169 46.105048 -66.000635 -10.609487 5.798127 -7.761641 
-22.009296 2.258503 90.937820 -120.873944 2.851069 87.479716 15.364350 7.342892 0.892422 -4.467776 -1.238002 15.549476 0.799155 10.340033 -24.601558 nan nan nan -13.243659 -9.725736 -12.471245 2.772932 -8.222105 14.976215 5.635607 -5.539058 -6.259448 nan nan nan -7.094144 -0.258925 0.914943 7.440690 -7.656043 11.156220 1.188917 -1.306393 -7.577102 3.928829 -21.163086 14.423832 5.504359 -15.734947 19.967060 -18.895864 -13.048085 6.317587 -62.743059 -43.206824 31.682507 155.863346 -69.611003 -123.863148 5.963994 -18.828426 -9.734133 17.849658 5.589662 -2.256003 35.641675 19.765191 -5.604167 -85.890941 46.075462 -65.309237 -10.359011 6.187422 -6.844819 
-22.023415 2.232247 90.911568 -120.890841 2.859691 87.476730 15.323034 7.278400 0.975689 -4.390154 -1.300623 15.369978 0.808165 10.411534 -24.461406 nan nan nan -13.272165 -9.755982 -12.547604 2.784355 -8.216158 15.089885 5.581739 -5.549310 -6.279349 nan nan nan -7.034563 -0.279612 0.939230 7.415346 -7.618933 11.108825 1.163520 -1.296220 -7.489769 3.955964 -21.238779 14.302476 5.472968 -15.726115 20.015423 -18.784683 -13.024860 6.228872 -62.946254 -43.293130 31.810480 155.740132 -69.535140 -123.790585 5.685395 -18.654569 -9.973345 17.732127 5.513222 -2.363377 35.786707 19.829052 -5.494960 -85.888292 46.089213 -65.244993 -10.043241 5.988204 -6.904089 
-22.039383 2.217485 90.901985 -120.909677 2.847488 87.434358 15.294787 7.244076 1.052941 -4.397750 -1.288444 15.341847 0.781505 10.478569 -24.398519 nan nan nan -13.298542 -9.758177 -12.541993 2.768668 -8.129994 15.233696 5.485955 -5.604637 -6.496630 nan nan nan -6.990584 -0.293602 0.945145 7.371869 -7.615168 11.138597 1.127779 -1.288121 -7.436271 3.993137 -21.318086 14.204239 5.465433 -15.666717 20.057610 -18.794575 -13.012816 6.234156 -63.112584 -43.325230 31.876617 155.837635 -69.356174 -123.933984 5.286356 -18.326693 -9.990316 17.685472 5.479381 -2.377510 35.897574 19.924255 -5.445145 -85.930871 46.057594 -65.297151 -9.645524 5.723331 -6.997692 
-22.035570 2.261172 90.906456 -120.922931 2.970386 86.940252 15.663576 7.365857 1.702417 -4.719616 -1.767781 15.234829 0.527969 10.424507 -24.197267 nan nan nan -13.221762 -9.734036 -11.918396 2.767045 -7.799720 15.227290 4.667626 -5.347073 -7.825095 nan nan nan -7.728352 0.169481 0.872042 7.748178 -7.584968 12.490069 1.688186 -1.030493 -8.110136 3.743298 -21.713335 15.600711 6.909594 -16.321185 18.622972 -18.737347 -14.125696 7.394395 -63.763903 -43.996745 31.597331 154.084222 -69.181276 -122.070592 3.258531 -18.962130 -9.655680 17.823447 6.035506 -1.860697 35.039799 19.251150 -6.598376 -86.169098 45.670077 -63.505986 -7.829787 6.012596 -4.238990 
-22.046322 2.281127 90.900452 -120.977457 2.947758 86.942790 15.652700 7.305231 1.724819 -4.763109 -1.729487 15.258882 0.541536 10.490571 -24.200044 nan nan nan -13.239541 -9.674297 -11.899437 2.751114 -7.669241 15.238949 4.636401 -5.421684 -7.905667 nan nan nan -7.768584 0.185496 0.856068 7.738521 -7.561974 12.494724 1.661456 -1.017244 -8.045270 3.800663 -21.773345 15.499377 6.994625 -16.370647 18.742269 -18.643059 -14.052509 7.397338 -64.110811 -44.008432 31.774261 154.330245 -69.091268 -122.197814 2.951887 -18.817822 -9.543978 17.837132 5.883061 -1.930569 35.157101 19.384555 -6.521628 -86.154252 45.803202 -63.116762 -7.527331 5.823506 -3.724144 
-22.049158 2.300917 90.907021 -120.949038 2.960595 86.969362 15.687641 7.336863 1.646315 -4.790161 -1.696098 15.367064 0.505254 10.459641 -24.158662 nan nan nan -13.231190 -9.695017 -11.910423 2.739210 -7.756357 15.253088 4.675887 -5.446505 -7.816865 nan nan nan -7.789420 0.205521 0.848172 7.770874 -7.551918 12.439990 1.675118 -1.021594 -8.011374 3.830950 -21.721801 15.579037 7.079450 -16.402524 18.712829 -18.616289 -14.050826 7.450925 -64.132021 -44.062489 31.793588 154.357380 -69.169350 -122.181365 3.070287 -18.974900 -9.669652 17.801218 5.822858 -1.913795 35.240301 19.358143 -6.549561 -86.303532 45.863144 -63.169804 -7.644545 5.917808 -3.814035 
-22.052578 2.319323 90.908562 -120.887964 3.001668 87.016953 15.716870 7.413803 1.607343 -4.787481 -1.769658 15.349994 0.412925 10.409209 -24.075167 nan nan nan -13.181440 -9.688373 -11.904666 2.728877 -7.827512 15.200827 4.693391 -5.456098 -7.766872 nan nan nan -7.780382 0.197863 0.790532 7.792703 -7.554792 12.430294 1.705722 -1.012141 -7.994479 3.827230 -21.639698 15.734185 7.175199 -16.428490 18.595393 -18.638692 -14.134443 7.517601 -64.014614 -44.101112 31.715786 154.280496 -69.319166 -122.021970 3.387813 -19.250055 -9.764286 17.721044 5.854442 -1.853119 35.319840 19.237588 -6.651639 -86.579608 45.861932 -63.481834 -7.978598 6.153456 -4.138176 
